<?xml version="1.0" encoding="UTF-8" standalone="no"?>
<!-- Created with Inkscape (http://www.inkscape.org/) -->
<svg
   xmlns:svg="http://www.w3.org/2000/svg"
   xmlns="http://www.w3.org/2000/svg"
   xmlns:xlink="http://www.w3.org/1999/xlink"
   version="1.0"
   width="1000"
   height="130"
   id="svg2807">
  <defs
     id="defs2809">
    <linearGradient
       id="linearGradient1893">
      <stop
         style="stop-color:#feec2f;stop-opacity:0.94117647"
         offset="0"
         id="stop1895" />
      <stop
         style="stop-color:#fd9900;stop-opacity:1"
         offset="1"
         id="stop1897" />
    </linearGradient>
    <linearGradient
       x1="571.60193"
       y1="46.883495"
       x2="570.14563"
       y2="180.85735"
       id="linearGradient1899"
       xlink:href="#linearGradient1893"
       gradientUnits="userSpaceOnUse"
       gradientTransform="translate(-107.4644,-52.35735)" />
    <linearGradient
       x1="571.60193"
       y1="46.883495"
       x2="570.14563"
       y2="180.85735"
       id="linearGradient2821"
       xlink:href="#linearGradient1893"
       gradientUnits="userSpaceOnUse"
       gradientTransform="translate(-107.4644,-52.35735)" />
  </defs>
  <path
     d="M 435.53562,128.00509 C 433.61062,127.83047 425.28562,127.20709 417.03562,126.6198 C 381.34368,124.07899 342.62858,117.58224 310.03562,108.66422 C 291.57928,103.61423 283.08551,104.66409 270.09638,113.60084 C 264.70173,117.31246 264.31981,117.33968 264.7192,113.98408 C 264.99266,111.6865 266.80077,110.39879 278.03562,104.50034 L 291.03562,97.675156 L 285.03562,97.643276 C 263.5371,97.529066 250.64234,86.352406 248.04742,65.583396 C 246.00653,49.248616 256.5093,29.664383 270.82517,23.110361 C 277.45094,20.076985 300.01798,17.167687 317.03562,17.153001 C 328.35806,17.143231 329.3656,17.309683 334.87972,20.100983 C 347.00812,26.240498 354.19657,37.100115 355.23313,50.848956 C 356.88847,72.805176 344.15218,88.324306 320.16265,93.582206 L 312.03562,95.363446 L 316.53562,96.608756 C 319.01062,97.293676 327.424,100.27506 335.23201,103.23406 C 351.20784,109.28841 359.78205,111.38676 383.53562,115.05536 C 407.36549,118.73575 435.52498,121.43589 463.50189,122.72314 C 507.36946,124.74153 553.07596,120.80427 596.76552,111.24352 C 607.65723,108.86005 625.6496,106.77524 624.44708,108.03602 C 623.05236,109.49829 587.49331,117.7486 570.53562,120.54439 C 533.89326,126.58557 505.82359,128.7182 466.05269,128.48261 C 451.1933,128.39459 437.46062,128.17971 435.53562,128.00509 z M 306.47296,92.654526 C 317.92838,90.482056 326.47191,83.597226 332.26974,71.866126 C 335.76962,64.784596 336.03031,63.642306 335.96039,55.694506 C 335.90416,49.301976 335.36487,46.006406 333.82457,42.642646 C 327.49415,28.818012 309.63101,19.612655 295.02039,22.645809 C 280.13804,25.735372 268.30501,42.23596 268.13036,60.142646 C 268.03519,69.900186 270.15789,75.186346 277.19028,82.704536 C 285.68741,91.788656 294.76832,94.874266 306.47296,92.654526 z M 383.94412,96.893566 C 375.48364,93.842256 369.94725,88.208406 366.78038,79.427686 C 364.43965,72.937576 364.80534,59.539766 367.51925,52.358066 C 370.45596,44.586756 378.77849,35.720094 388.45049,30.058331 L 395.9938,25.642646 L 389.42372,25.642646 C 385.81017,25.642646 379.15485,26.140423 374.63413,26.748818 C 370.11341,27.357213 366.16846,27.608819 365.86758,27.307944 C 365.56671,27.007069 366.39006,24.821792 367.69725,22.451772 L 370.07395,18.142646 L 404.30479,17.879518 C 426.49914,17.708914 438.53562,17.965935 438.53562,18.610466 C 438.53562,19.157208 437.29812,19.86292 435.78562,20.178715 C 408.17282,25.943993 389.39514,43.012593 387.85346,63.748256 C 387.19326,72.628086 388.43107,77.768476 392.79921,84.286886 C 402.36483,98.561296 418.46527,96.959996 436.56381,79.934186 C 449.90107,67.387446 454.12618,56.502916 455.21237,31.892646 L 455.8413,17.642646 L 466.79687,17.642646 C 477.6494,17.642646 477.74742,17.663808 477.21964,19.892646 C 473.70161,34.749382 472.76279,80.376806 475.76394,90.641296 C 476.64818,93.665556 477.14653,96.365556 476.87138,96.641296 C 476.59623,96.917036 471.35482,97.142646 465.2238,97.142646 C 456.07234,97.142646 454.03999,96.874076 453.87265,95.642646 C 453.76053,94.817646 453.40488,92.516116 453.08231,90.528136 L 452.49583,86.913616 L 444.76572,90.723196 C 434.61972,95.723386 425.42674,97.462456 405.4664,98.157606 C 391.10285,98.657846 388.39503,98.498816 383.94412,96.893566 z M 493.80907,88.885496 C 494.28691,84.076926 494.50959,69.567646 494.30392,56.642646 C 493.89143,30.719783 493.38104,28.187357 487.30329,21.907626 C 485.58126,20.128366 484.36657,18.503436 484.60397,18.296671 C 484.84138,18.089906 491.83655,17.638927 500.14879,17.294495 L 515.26196,16.668254 L 513.8226,22.898667 C 512.69571,27.776475 512.4578,35.534918 512.72673,58.635866 C 513.02271,84.059866 513.3118,88.682766 514.81606,92.046186 C 515.77626,94.193136 516.44347,96.043156 516.29875,96.157346 C 516.15403,96.271536 510.83917,96.649226 504.48796,96.996656 L 492.94029,97.628346 L 493.80907,88.885496 z M 522.08562,95.797606 C 522.60812,95.332836 529.11062,90.276996 536.53562,84.562406 C 543.96062,78.847806 554.69029,70.178346 560.37934,65.296946 C 572.62621,54.788686 596.80366,31.479323 599.75385,27.336175 L 601.82969,24.420928 L 579.43265,24.898366 C 554.2556,25.435065 549.27476,26.394055 533.6472,33.713681 C 529.03356,35.874612 525.10215,37.642646 524.91073,37.642646 C 524.7193,37.642646 528.2691,32.857344 532.79915,27.008641 L 541.03562,16.374637 L 588.52872,17.085076 C 614.64993,17.475817 636.18468,17.958376 636.38374,18.157428 C 636.58279,18.35648 635.03769,20.009585 632.9502,21.830994 C 630.8627,23.652402 621.02794,32.487478 611.09518,41.464494 C 601.16242,50.441516 586.1816,63.408266 577.80446,70.279506 C 569.42732,77.150746 562.34557,83.141136 562.06724,83.591486 C 561.78891,84.041826 564.36794,84.247306 567.79841,84.048116 C 571.22887,83.848916 581.91062,83.447986 591.53562,83.157166 C 601.16062,82.866346 612.70611,82.054126 617.19226,81.352246 L 625.34891,80.076096 L 626.4689,83.814306 C 627.0849,85.870316 628.79298,88.983486 630.26464,90.732446 L 632.94038,93.912386 L 612.988,93.212666 C 597.57367,92.672096 585.66233,92.982586 560.61755,94.577796 C 524.28589,96.891916 520.72879,97.004526 522.08562,95.797606 z M 23.035617,94.961486 C 14.337967,93.008156 9.690967,89.763426 6.286957,83.266856 C 3.254027,77.478496 3.234517,65.096946 6.247837,58.446286 C 9.485897,51.299626 15.944787,45.416805 22.984187,43.202641 C 28.309527,41.527616 31.033887,41.407358 49.912087,42.013998 C 61.463817,42.385206 71.086207,42.859902 71.295187,43.068878 C 71.612357,43.386054 67.945657,51.400816 66.987677,52.484326 C 66.821527,52.672256 63.316977,51.161156 59.199797,49.126336 C 46.170787,42.687053 34.726007,43.20197 26.314727,50.605886 C 19.965547,56.194646 17.215037,62.963436 17.712897,71.774296 C 18.026347,77.321586 18.639947,79.330226 21.082947,82.806186 C 29.481097,94.755286 46.406607,95.716116 63.817017,85.232116 L 69.274727,81.945656 L 66.511957,88.044156 L 63.749187,94.142646 L 56.892397,94.768436 C 48.961867,95.492226 25.982287,95.623246 23.035617,94.961486 z M 788.29966,94.673596 C 778.49642,91.626256 773.53562,83.881616 773.53562,71.624436 C 773.53562,61.835226 775.59116,55.909416 781.11991,49.760116 C 787.86709,42.255629 791.00856,41.33103 811.39279,40.850186 L 828.74996,40.440748 L 828.37691,29.541697 L 828.00386,18.642646 L 835.51974,18.642626 L 843.03562,18.642605 L 842.24507,33.392626 C 841.81028,41.505137 841.58528,58.830386 841.74507,71.893176 L 842.03562,95.643706 L 833.95881,95.643176 L 825.88201,95.642646 L 826.32231,92.642646 C 826.83036,89.181106 826.8609,89.193586 822.40774,91.043436 C 816.16487,93.636736 792.92213,96.110496 788.29966,94.673596 z M 810.37041,89.726936 C 815.27819,87.223166 822.20825,79.636956 824.66857,74.074986 C 825.74368,71.644536 827.13915,65.800626 827.76962,61.088516 L 828.91594,52.521036 L 825.97578,50.104476 C 821.25177,46.22174 814.71828,43.404357 810.571,43.461594 C 805.31742,43.534099 797.49571,47.703076 793.20204,52.719256 C 782.72091,64.964096 785.13776,83.925096 797.91953,89.729526 C 803.15931,92.109006 805.70219,92.108476 810.37041,89.726936 z M 98.035617,93.995826 C 89.058467,91.825576 83.860787,88.091446 80.276557,81.237326 C 77.106647,75.175516 77.302627,63.999616 80.708187,56.623096 C 86.852807,43.313704 96.488827,39.336372 120.67569,40.12623 C 135.44952,40.608692 139.61466,41.752546 145.13867,46.844401 C 158.14011,58.828706 152.84568,85.183406 136.02478,92.211626 C 132.85483,93.536106 102.10744,94.980196 98.035617,93.995826 z M 125.25173,88.002916 C 136.02054,81.860426 141.47958,66.582316 136.63577,56.142646 C 131.11197,44.237442 118.15561,39.539451 106.65368,45.271107 C 94.434197,51.360326 88.329227,66.057176 93.414457,77.142646 C 99.188237,89.729116 113.60416,94.646646 125.25173,88.002916 z M 648.90979,93.157926 C 645.22636,91.609166 642.06363,87.772566 640.45685,82.903956 C 638.04669,75.601126 640.12222,59.519186 645.03992,47.392646 C 645.56195,46.105358 645.2586,45.630698 643.89261,45.597459 C 642.87126,45.572605 640.01062,44.46794 637.53562,43.142646 L 633.03562,40.733021 L 640.70406,40.687833 C 648.25734,40.643325 648.40271,40.593838 650.38401,37.392646 C 654.70956,30.403855 657.28264,28.937597 666.53562,28.188713 L 675.03562,27.500771 L 669.28562,33.350706 C 666.12312,36.56817 663.53562,39.45603 663.53562,39.768173 C 663.53562,40.080315 669.16062,40.119013 676.03562,39.854167 C 682.99325,39.586139 688.52087,39.765034 688.50235,40.257638 C 688.48405,40.744392 687.62442,42.155146 686.59206,43.392646 C 684.82253,45.513791 683.97246,45.642646 671.74847,45.642646 L 658.78191,45.642646 L 656.78,50.392646 C 652.95672,59.464296 652.12091,63.186106 652.12018,71.142646 C 652.11899,84.208246 656.65485,89.631546 667.58984,89.638906 C 673.13049,89.642636 675.26167,88.674646 684.25419,82.069916 L 686.47276,80.440436 L 684.38654,86.618076 C 683.23912,90.015776 681.79076,92.950556 681.16797,93.139816 C 680.54518,93.329076 673.71716,93.698536 665.99461,93.960836 C 655.89464,94.303886 651.09925,94.078526 648.90979,93.157926 z M 706.03562,93.505466 C 700.95604,91.612436 696.84076,87.904426 694.53642,83.144296 C 692.68731,79.324536 692.38917,77.267486 692.68458,70.367116 C 693.10101,60.640006 695.30674,55.599466 702.27644,48.447776 C 709.40472,41.133355 714.6787,39.335475 728.53562,39.496106 C 734.86062,39.569426 743.98429,40.386052 748.81044,41.31083 C 757.02087,42.884097 757.92699,42.884523 762.89833,41.317445 C 765.82052,40.396306 768.42868,39.642646 768.69423,39.642646 C 768.95979,39.642646 768.83027,42.005146 768.40642,44.892646 C 766.95356,54.790286 766.26568,81.975516 767.32475,87.640196 C 768.55941,94.244006 768.20012,94.606146 760.39261,94.627336 C 754.25198,94.643996 753.53562,94.000296 753.53562,88.465836 L 753.53562,85.452606 L 749.12606,88.036776 C 746.70081,89.458066 742.18689,91.279826 739.09514,92.085126 C 731.58657,94.040866 709.96487,94.969796 706.03562,93.505466 z M 734.58984,87.804596 C 744.31102,81.598906 752.38463,69.459966 753.28921,59.689496 C 753.66775,55.600766 753.33862,54.711796 750.02253,50.866426 C 745.13445,45.198171 741.26207,43.320771 734.44563,43.314476 C 720.10395,43.30123 706.21742,57.286776 706.20652,71.754936 C 706.19542,86.483826 722.3496,95.618386 734.58984,87.804596 z M 869.03562,93.995826 C 860.61514,91.960156 854.85249,88.089866 851.9847,82.544176 C 846.39121,71.727556 848.95567,56.224146 857.69799,48.004596 C 864.70349,41.418015 872.9167,39.513627 891.67569,40.12623 C 906.40212,40.607145 910.62072,41.758151 916.07142,46.782387 C 929.05722,58.752306 924.03502,85.119736 907.45202,92.035846 C 903.87602,93.527246 873.50654,95.076686 869.03562,93.995826 z M 896.37132,87.932806 C 900.88142,85.358336 906.18712,78.812046 908.20952,73.326706 C 913.52132,58.919446 902.41052,42.642646 887.26408,42.642646 C 871.56436,42.642646 858.15061,62.193476 864.0863,76.424766 C 869.49274,89.387136 884.47069,94.726036 896.37132,87.932806 z M 930.93792,91.892646 C 931.28742,90.380146 932.08492,84.046176 932.71022,77.817156 C 934.01062,64.862076 932.79302,48.974926 930.10072,43.768505 L 928.48422,40.642646 L 936.40152,40.642646 C 944.02442,40.642646 944.34222,40.73613 944.94982,43.156656 C 945.57532,45.64892 945.60872,45.656223 948.80822,44.000881 C 954.60692,41.000792 961.82502,39.589976 974.54232,38.971015 L 987.04902,38.362305 L 990.32822,41.121591 C 993.69482,43.954387 996.53562,48.454036 996.53562,50.953696 C 996.53562,51.895806 994.79252,52.606236 991.28562,53.093466 C 981.96172,54.388856 982.21692,54.451846 981.42232,50.658466 C 980.15342,44.600992 973.89242,40.784325 967.27902,42.036776 C 959.93962,43.426737 948.94892,54.965896 946.37882,63.980066 C 945.72602,66.269486 945.16432,74.105146 945.13042,81.392646 L 945.06892,94.642646 L 937.68572,94.642646 L 930.30242,94.642646 L 930.93792,91.892646 z M 159.26863,86.392646 C 160.07307,82.298406 160.76766,72.178196 160.86437,63.142646 C 161.01051,49.488526 160.77527,46.666139 159.25994,43.892646 L 157.48426,40.642646 L 164.00994,40.475979 C 167.59906,40.384313 171.3187,40.271813 172.2758,40.225979 C 173.4502,40.16974 174.19291,41.11802 174.56018,43.142646 C 175.20678,46.707144 175.85369,46.702651 184.53562,43.073367 C 190.21033,40.701183 192.74969,40.295807 204.53562,39.880619 C 223.50866,39.212247 229.19558,41.13546 233.56352,49.697336 C 237.49236,57.398486 235.32839,72.467266 229.22848,79.884396 C 227.98832,81.392356 224.06259,84.214186 220.50463,86.155116 L 214.03562,89.684086 L 220.53562,89.045746 C 224.11062,88.694666 228.96746,88.064826 231.32859,87.646106 C 233.68973,87.227386 235.47529,87.167816 235.29651,87.513726 C 235.11772,87.859626 234.35115,89.380146 233.59302,90.892646 L 232.21459,93.642646 L 207.1251,93.548676 C 183.53661,93.460336 182.42448,93.375256 188.53562,92.126576 C 205.30435,88.700246 214.83292,81.822986 219.98935,69.424766 C 225.10398,57.127066 217.65162,43.897305 205.01958,42.849759 C 197.30483,42.209991 191.9105,44.495665 185.74188,51.018066 C 176.98681,60.275276 172.59069,72.232956 172.55298,86.892646 L 172.53562,93.642646 L 165.18988,93.642646 L 157.84413,93.642646 L 159.26863,86.392646 z M 480.20725,8.6591906 C 478.18785,6.8861396 476.53562,5.1027468 476.53562,4.6960948 C 476.53562,4.2894438 483.84812,3.6681038 492.78562,3.3153388 C 501.72312,2.9625748 511.2363,2.3720798 513.92602,2.0031298 L 518.81642,1.3323098 L 518.0982,5.2374778 C 517.70319,7.3853196 517.07751,9.4401076 516.7078,9.8036728 C 516.3381,10.167238 508.80035,10.783799 499.95725,11.17381 L 483.87887,11.882921 L 480.20725,8.6591906 z "
     style="fill:url(#linearGradient2821);fill-opacity:1"
     id="path1873" />
</svg>
